<svg xmlns="http://www.w3.org/2000/svg" version="1.0" viewBox="0 0 2051 2062"><path d="M920.5 684.3c-58.4 24.4-107.7 70.2-135.3 125.7-9.5 19-14.1 30.4-18 44.6-7.6 27.4-10.2 47.4-10.3 76.9-.1 29 2.6 48.1 10.2 74.3 7.3 25.2 23.1 56.8 38.2 76.4l2.8 3.7-5.8 7.8c-3.2 4.3-13.2 17.4-22.3 29.2-9.1 11.7-17.4 22.6-18.5 24.1-2.2 3-22.7 29.7-41.5 54-21 27.1-22.3 29-20.1 29 1.1 0 9.3-1.8 18.3-4 43.1-10.4 87.3-14.3 123.8-10.9 34.5 3.2 70.8 14.6 99.5 31.2 25.1 14.6 57.1 45.2 67.4 64.4 1.1 2.2 1 2.3-2.1 2.3-2.7 0-4.6-1.2-9.8-6.3-29.6-28.3-71.2-51.8-113-64-27.2-7.9-36.6-9.1-73-9.1-39.2-.1-52.6 1.6-111.9 14-3.9.8-1.2 2 9.4 4.3 5.5 1.2 15 3.5 21 5.1 6.1 1.6 14.4 3.6 18.5 4.5s11.8 2.9 17 4.5c9.4 2.8 17.3 5 50.5 13.7 33.9 8.9 65.8 17.5 84.5 22.8 6.9 1.9 19.5 5.3 28 7.6 8.5 2.2 17.5 4.6 20 5.4s13.2 3.4 23.9 5.8c17.1 3.9 19.9 4.8 23.2 7.6 2.1 1.7 4.5 4.6 5.4 6.4.8 1.8 5.6 8.7 10.5 15.4 5 6.8 10.1 14.2 11.4 16.5 1.3 2.4 3.7 5.1 5.3 6l2.9 1.7 5.2-7.7c18-26.4 23.4-34 26.2-36.3 2-1.7 5.7-3.2 10.8-4.3 32.9-7.2 62.6-14.5 89.2-21.9 14.7-4.1 46.3-12.6 64-17.3 12.4-3.2 22.3-5.9 39.5-10.8 9.4-2.6 28.2-7.5 32.5-8.3 1.4-.3 10.4-2.7 20-5.4s23.7-6.6 31.3-8.7 13.9-4.2 14-4.7c.2-1.1-3.7-2.4-16.8-5.6-14.9-3.6-21.1-4.7-42.5-7.6-18.5-2.5-23.4-2.7-51-2.8-32.3 0-43.9 1-62.8 5.5-12.4 3-32.3 9.3-42.2 13.3-18.7 7.7-44 21.9-59 33.1-7.3 5.4-23.6 19.5-27.9 24-2.6 2.7-4.3 3.6-6.8 3.6-1.8 0-3.3-.3-3.3-.6 0-2.8 14.9-22.2 25.4-33.1 9.2-9.7 22.9-21.1 33.1-28 5.3-3.5 24.2-14.3 25.1-14.3.2 0 3.7-1.6 7.8-3.5 16-7.5 45.9-15.2 70.1-18.1 25.3-3 68.8-1.1 96 4.2 6.4 1.3 36.8 8.7 44.8 11 3.1.9 1.8-1.5-6-11.8-4.3-5.5-9.6-12.4-11.8-15.3s-7-9-10.6-13.6c-5.4-6.9-39.9-51.2-48.5-62.3-6.4-8.3-19.8-25.3-21.2-27.1-3.2-3.7-6.2-8.3-6.2-9.3 0-.6 1.9-3.8 4.3-7.3 9.2-13.5 13.1-19.9 19.4-32.3 12.7-25.2 17.5-40.7 8.8-28.3-3.7 5.2-19.5 22.7-25.4 28.2-2.5 2.2-5.2 4.8-6 5.8-2.7 3.1-14.9 12.8-25 19.9-17.8 12.4-38.3 22.7-60.1 30.1-15.1 5-25.7 7.5-26.9 6.1-.5-.5-3-7.7-5.6-15.9-7.8-25-8.7-27.4-12.2-33.3-2.8-4.7-3.3-6-2.3-7.5.6-1 6.4-8.4 12.9-16.5 21.7-27 34.9-49.4 42.5-72.2 14.3-43.1 8.2-86.9-17.1-122.9-4.5-6.4-17.8-20.2-24.7-25.7-5.6-4.4-8.5-6.3-20.3-12.9-4.6-2.6-8.3-4.9-8.3-5.1 0-1 3.4-7.1 6.6-11.7 5.9-8.5 5.2-18.7-1.6-22.2-1.7-.9-3-1.7-3-1.9s2.4-4.3 5.3-9.2 6.8-11.6 8.6-14.9c4.5-8.3 4.9-8.6 8.5-8 4.7.8 7.5-1.3 11.7-9 5.6-10 5.2-11.8-3.6-17-42.3-25.3-40.8-24.5-44.9-24.5-3.8 0-5.9 2-10.4 10.2-3.9 7.1-4.1 10-.5 12.6l2.6 1.9-4.8 7.9c-2.7 4.3-5.8 9.7-7 11.9s-3.5 6.1-5.1 8.7l-2.9 4.7-5.5-.2c-3.8-.1-6.4.3-8.1 1.5-1.4.9-7.2 9.4-12.9 19-5.7 9.5-13.4 22.2-17 28.3-3.7 6-7.9 13-9.4 15.5s-6.5 11-11.2 19-9.6 16.1-10.9 18c-1.2 1.9-5.7 9.3-9.9 16.5-8.2 14-9.1 17.4-5.6 21.8 1.1 1.4 2 2.8 2 3.1s-2.2 4.5-5 9.3c-2.7 4.8-5 9.4-5 10.2s1.7 3.1 3.9 5.1l3.8 3.7-2.3 4.4c-4.7 9.1-2.6 14.7 7.6 20.3 10.4 5.6 16.6 4.4 20.5-3.9l1.6-3.3 6 .5c7.1.7 8.4-.2 13.5-9.3 3.4-6.1 3.5-6.2 8.4-6.6 3.5-.4 5.9-1.3 7.6-2.9 2.2-2 14.3-21.6 31.3-50.7 2.3-4 4.9-7.6 5.7-7.9 1.5-.5 14.1 6.1 20.8 10.9 10.7 7.7 21.3 20.2 27.3 32.3 1.1 2.2 3.3 8.4 4.8 13.9 2.5 8.9 2.7 11 2.3 21.5-.6 13.4-2.8 21.2-10.8 37.6-4 8.3-11.9 21.6-14 23.5-.3.3-2.3 2.7-4.5 5.5-15.6 19.4-33.3 30.2-48 29.3-7-.4-1.8 2.4-104-56.8-38.6-22.4-38.3-22.2-40.7-20.9-3.4 1.8-7.9 10-7.6 13.7.3 3.3 1 3.8 21.8 15.9 11.8 6.8 24 13.8 27 15.5s8 4.5 11 6.3c8.3 4.9 38.8 22.8 44.2 25.9l4.8 2.7-1.9 3.7c-10.3 20.2-13.1 28.2-11.7 33.7.8 3 6 5.7 21.1 10.7 5 1.7 9.3 3.2 9.7 3.5.4.2.1 2.1-.8 4.1-2.2 5.2-5.2 13.6-7.6 21.2-1.2 3.6-2.2 6.7-2.4 6.9-1.4 1.7-33.5-10.3-49.9-18.7-13.1-6.6-34.3-20.4-44.5-28.9-45.2-37.5-73.5-86-83.9-143.8-2.5-13.8-3.3-24-3.3-41.5 0-26.6 3.7-49.5 12.5-77 7.7-24.3 23.4-53.4 39.6-73.4 15.4-18.9 21.1-24.7 41.4-42.1 4.2-3.7 7.7-6.9 7.7-7.1 0-.8-1.7-.2-11.5 3.9m-98.1 418.9c3.6 5.1 21.4 22.2 36.2 34.8 26.2 22.4 66.9 43.4 102.4 52.9 28.5 7.6 43.9 9.5 73.7 8.9 38.5-.8 64.8-6.6 101.8-22.5 31.3-13.4 66.1-37.5 91.2-63.3 8.2-8.3 9.5-9.3 10.7-8 1.5 1.5 11.5 14.3 25.3 32.5 11.5 15.1 30.5 39.6 40.6 52.3 4.9 6.2 8.8 11.5 8.5 11.7-.2.2-5.1-.5-10.8-1.5-25.7-4.8-39.9-6.3-63-6.4-58.7-.3-102.7 13.1-143.5 43.8-23.6 17.7-41.2 38.8-54 64.8l-4.8 9.8h-11.5l-6.8-12.6c-16.6-30.4-40.7-54.4-75.4-75-35.2-21-84.8-33-128-31-17 .8-36.7 2.9-53.5 5.8-15 2.5-21.5 3.2-21.5 2.4 0-.3 3.5-5 7.8-10.3 4.3-5.4 10.6-13.4 14-17.8 3.3-4.4 10.5-13.7 15.9-20.7 5.4-6.9 13-16.8 16.8-21.8 3.9-5.1 8.4-10.9 10-13 1.7-2 5.5-6.9 8.5-10.8s6-7.2 6.7-7.2c.6 0 1.9 1 2.7 2.2m25.6 152.4c17 2.7 27.2 5.3 46.5 11.7 17.6 5.9 31.2 11.5 39.2 16.2 17.3 9.9 22.6 13.2 25.1 15.2l2.7 2.2-7-2c-3.8-1.1-12.4-3.8-19-5.9s-16.7-5.2-22.5-6.8c-5.8-1.7-17.5-5.1-26-7.5-8.5-2.5-22-6.2-30-8.2s-19.4-4.9-25.5-6.4c-6-1.6-16.4-4.1-23-5.6s-12.4-3.1-13-3.4c-1.7-1 15.4-1.9 29.5-1.4 7.4.2 17.8 1.1 23 1.9m413.5-1.7c5.5.3 9.1.9 8 1.3-1.1.3-10.8 2.8-21.5 5.4-20 4.8-72.9 18.8-92.5 24.4-6 1.7-12.3 3.5-14 4-4.9 1.4-18.4 5.6-28 8.7-4.9 1.7-10.3 3.3-12 3.7l-3 .7 2.5-1.8c7.3-5.3 33.3-20.1 41.5-23.6 16.1-6.7 44.5-15.6 60-18.7 24.2-4.8 35.5-5.6 59-4.1"/></svg>