<svg xmlns="http://www.w3.org/2000/svg" version="1.0" viewBox="0 0 3680 3658"><path d="M1738 1386.7c-.8.2-2.8 1.1-4.5 1.8-1.6.7-5.2 2.2-8 3.3-8.2 3.3-21.4 10.5-39.8 21.7-5.9 3.6-21 15-29.2 21.9-14.8 12.5-41.1 41.6-43 47.5-.3 1.2-1 2.1-1.4 2.1s-2.1 2.1-3.8 4.7c-20.1 31.4-33 63.9-39.7 100.3-3.5 19.2-4.7 53.2-2.5 76 2.5 27 13 63 24.7 85 2.4 4.7 5.3 10.2 6.4 12.4 1.1 2.1 5.8 9.5 10.4 16.4l8.4 12.5-3.6 5.1c-1.9 2.8-6.2 8.5-9.5 12.6-3.2 4.1-11 14.3-17.4 22.7-6.3 8.3-12 15.7-12.7 16.5-.7.7-6.7 8.4-13.3 17.2-16.4 21.7-19.1 25.2-26 34.1-3.3 4.2-6.7 8.6-7.5 9.9-1.5 2.2-9 11.7-10 12.6-2.4 2.1-9.9 13-9.3 13.3.5.3 8.7-1.5 18.3-3.9 52.7-13.1 107.6-16.1 148-7.9 21.1 4.2 34.7 8.3 51 15.1 34.2 14.3 68 40.7 86.8 67.7 6.1 8.8 7.3 11 6.4 11.9-1.7 1.7-6.6-1.1-14.3-8.1-4.5-4.1-9.3-8.4-10.8-9.5-1.4-1.1-2.8-2.3-3.1-2.6-1.5-1.7-13.8-10.6-23-16.5-10.6-6.9-38.7-21.3-49.5-25.4-18.1-6.9-42.1-13.3-58-15.6-14.9-2.2-49.8-3-66-1.6-21.1 1.8-51.9 6.7-67.5 10.6-3 .7-8.8 1.9-12.7 2.5-4 .7-7.3 1.6-7.3 2 0 .5 1.9 1.1 4.3 1.5 2.3.4 10.3 2.2 17.7 4.1 19.5 4.9 20.7 5.2 29 6.9 4.1.9 11.8 2.9 17 4.5 12.1 3.6 27.3 7.7 72.5 19.5 5.5 1.4 14.7 3.9 20.5 5.5 9.6 2.7 26.4 7.2 44.8 12.1 4 1.1 9.2 2.6 11.5 3.4 2.3.7 10.7 3 18.7 5 8 1.9 15.6 4 17 4.5 1.4.6 11.4 3 22.3 5.4 16.5 3.7 20.3 4.9 23.2 7.3 1.8 1.5 3.7 3.7 4.1 4.8.3 1.1 5 8.1 10.4 15.5s11.1 15.7 12.7 18.3c1.6 2.7 4.1 5.4 5.6 6.2 2.5 1.3 2.7 1.2 6.9-5.1 16.3-24.2 22.7-33.2 25.8-36.4 3.4-3.5 4-3.7 27-8.8 24.1-5.3 57.4-13.6 76-19 5.8-1.6 16.1-4.4 23-6.2 6.9-1.7 16.1-4.2 20.5-5.5s13.2-3.7 19.5-5.4c15.9-4.1 26.3-6.9 34.5-9.3 3.9-1.1 10.6-2.9 15-3.9 13.4-3.3 33.5-8.6 61.5-16.5 11.3-3.1 21.7-5.9 23.3-6.2 2.9-.5 3.6-1.9 1.2-2.8-.8-.3-5-1.4-9.2-2.4-4.3-1-9.6-2.3-11.8-2.9-19.9-5.5-61.7-10.1-91-10.1-17.3 0-41 2.2-55.5 5.1-9.1 1.9-31.5 8.8-43.5 13.4-11.7 4.5-37.4 17.3-44.7 22.2-2.4 1.6-7.2 4.9-10.8 7.3-8.6 5.8-22.9 17.2-31.4 25.3-4.6 4.3-7.9 6.7-10 7-3.9.6-4 .4-2.5-2.5 6.2-11.7 30.1-39.1 41.4-47.4 2.2-1.6 4.2-3.1 4.5-3.4 1.4-1.4 12.3-9.1 18.2-12.8 7.1-4.4 29.2-15.4 36.2-17.9 5.7-2 18.8-5.8 27.1-7.7 3.9-.9 8.8-2.1 11-2.6 14.1-3.4 27.5-4.5 56-4.5 36.2.1 50.3 1.8 84.9 10.6 13.1 3.3 24.1 5.8 24.3 5.5.3-.2-1.6-3.1-4.1-6.3s-7.5-9.6-11.1-14.3-10.3-13.2-14.9-19c-4.5-5.8-11.8-15.2-16.2-21-7.2-9.4-17.7-22.9-35.9-46.1-3.3-4.2-8.7-11.2-12-15.4-3.3-4.3-6.5-8.3-7-8.9-2.2-2.3-5.5-7.5-5.5-8.5 0-.6 1.7-3.5 3.7-6.4 12.9-18.2 23-36.6 30.3-55.1 4.4-11.2 3.5-12.3-3-4.1-8.7 11-9 11.4-19 21.5-22.5 22.7-40.7 35.9-67 48.7-18 8.8-33 14.1-53.7 19-2 .5-2.5-.7-7.1-15.4-2.8-8.7-5.2-16.7-5.5-17.8-1.3-4.9-5-13.4-7.8-17.9-1.6-2.7-2.8-5.4-2.5-6 .3-.9 17.6-22.4 22.8-28.6.7-.8 5-7 9.4-13.7 14.4-21.6 24.3-43.6 28.6-63.7 3.8-18 3.4-44-.8-61.1-1.6-6.5-7.4-22-10.2-27.2-8.4-15.8-12.7-21.7-23.6-32.8-7.2-7.1-18.5-16.5-20.1-16.5-.5 0-1.6-.6-2.4-1.4-1.9-1.7-13.9-8.5-16.3-9.3-1-.3-1.8-1-1.8-1.5 0-.6 2.2-4.7 4.9-9.2 6-9.8 7-14.2 4.6-19.7-1-2.1-2.1-3.9-2.4-3.9s-1.7-.9-3-1.9l-2.3-1.8 2.5-3.9c1.5-2.1 5.7-9.3 9.5-15.9l6.9-12h4.8c5.4-.1 7-1.6 11.8-10.8 3.9-7.4 3.6-10.1-1.3-13.2-2.2-1.4-4.1-2.5-4.4-2.5-.2 0-3.4-1.8-7-4s-7-4-7.6-4c-.5 0-1-.4-1-.8s-2.2-1.9-5-3.3c-2.7-1.3-5-2.7-5-3.2 0-.4-.4-.7-1-.7-.5 0-3.9-1.8-7.6-4.1-5.1-3.1-7.4-3.9-10.3-3.7-3.3.3-3.9.9-8.3 8.2-5.6 9.3-6 11.9-1.9 14.4l3 1.8-5.6 8.9c-3 5-6.5 10.9-7.8 13.1-6.2 11.1-6.5 11.4-12.3 11.4-3.1 0-6.5.7-8 1.6-1.8 1-7.8 10.2-17.2 26-8 13.4-15.1 25.2-15.8 26.1-.7 1-3.3 5.4-5.9 9.8-2.5 4.4-5.6 9.6-6.8 11.5-3 4.7-22.8 37.7-25.2 42-1.1 1.9-3.5 6.1-5.3 9.3-3.6 6.4-3.6 10.4 0 14.2 2 2.1 2 2.3.3 4.6-1 1.3-2.6 3.9-3.6 5.7-6.1 10.8-6.2 12.8-1.1 17l3.6 3-2.6 4.8c-4.8 9.1-2.9 14.2 7.4 19.8 10.2 5.5 16.8 4.5 20.5-3.1l1.9-3.9h7l7.1.1 4.5-7.7c4.4-7.5 4.6-7.8 8.4-7.8 5.1 0 9.6-2.9 12.6-8.2 1.3-2.4 3.1-5.4 4-6.8 1.9-2.8 20.2-33.7 24.5-41.3 1.4-2.7 3.3-5.1 4.1-5.4 1.4-.5 13.1 5.5 20.6 10.7 6.6 4.5 15.8 13.8 20.4 20.5 5.8 8.4 8.8 14.6 11.9 24.9 2.5 8.2 2.7 9.9 2.3 22-.4 10.8-.9 14.5-3.1 20.7-7 20.5-19 40-34.2 55.9-7.6 8-12.5 11.6-21.3 15.8-6.4 3-9 3.7-15.4 4l-7.7.4-10.8-6c-19-10.5-20.8-11.5-21.8-12.2-.5-.4-10-5.9-21-12.2-11-6.4-24.6-14.3-30.3-17.7-5.7-3.3-10.5-6.1-10.7-6.1-.6 0-30.3-17.2-35.9-20.9-7-4.3-9.9-4.1-13.1 1-7.3 11.4-7.4 11.3 14.7 23.9 10.1 5.7 20.6 11.9 23.5 13.7s5.5 3.3 5.9 3.3c.3 0 4.3 2.2 8.8 4.8 27.1 16.2 35.8 21.3 42.1 24.7 3.9 2.1 7.6 4.3 8.3 4.9 1 1 0 3.9-5.3 14.8-10.1 20.8-10.1 24.3.1 28.8 3.6 1.7 10.3 4.2 15 5.6 4.6 1.5 8.6 3 8.9 3.4.4.7-2.2 8.4-4.4 13-.4.8-2 5.5-3.7 10.3l-2.9 8.8-4-.7c-13.6-2.2-49.4-18.2-66.6-29.7-9.8-6.5-19.6-13.6-22-15.9-.8-.7-3.4-2.9-5.9-4.8-13.9-10.9-36.4-36.6-46.5-53.1-18.1-29.8-29.5-61.1-34.6-95.4-8.3-55.8 6.5-119.9 38.7-168 2.9-4.4 6.8-9.9 8.6-12.2s5.2-6.5 7.4-9.5c5.5-7.1 20.1-21.9 29.4-29.9 4.1-3.5 8.6-7.4 10.1-8.7 1.4-1.2 3.4-2.9 4.5-3.7 1.9-1.4 1.2-1.8-1.6-.8m-99.2 431.4c5.9 6.1 15 14.8 20.2 19.3 5.2 4.4 9.7 8.3 10 8.6 1.3 1.3 12.3 9.3 19.5 14.1 35.8 23.9 76.6 39 120.8 44.9 14.1 1.9 54.2.8 69.7-1.9 21.1-3.7 44.4-10.2 57.4-16.1 2.3-1 7.4-3.3 11.4-5 8.9-3.8 18.4-8.9 34.9-18.8 4-2.4 21.3-14.5 23.8-16.7 4.3-3.8 6.4-5.5 12.5-10.4 3-2.4 10.1-9.1 15.7-14.9 5.8-6 10.6-10.1 11.2-9.7.6.3 3.8 4.2 7.2 8.7 6.6 8.7 6.6 8.7 10.7 13.8 1.5 1.9 8.2 10.5 14.7 19 6.6 8.5 12.3 15.9 12.7 16.5.5.5 1.9 2.4 3.1 4.1s3.6 4.9 5.3 7c1.8 2.1 6 7.5 9.5 11.9s6.6 8.2 6.9 8.5 1.8 2.3 3.4 4.4l2.9 3.9-3.9-.6c-2.1-.3-10.4-1.7-18.4-3.1-23.7-4.1-36.2-4.9-61.5-4.3-43.1 1.1-72 7.8-104.8 24.3-27.3 13.7-53.6 36.3-70.7 60.9-4.1 5.8-13.2 22-16.2 28.7-1.9 4.5-2.3 4.8-5.7 4.7-7.2-.2-8-.9-13.3-10.9-17.2-32.3-43-58.1-79.3-79-10.1-5.9-35.8-16.7-45-19.1-1.6-.4-6.5-1.7-10.9-2.8-18.9-5-31.7-6.4-58.1-6.5-13.7-.1-28.9.2-33.6.6-7.6.7-43.1 5.9-50.1 7.4-3 .6-3.6-.6-1.5-2.8.6-.7 2.4-2.9 3.8-4.8 1.5-1.9 3.5-4.5 4.5-5.7 2-2.3 2.6-3.1 22.1-28.3 7-9.1 12.9-16.7 13.2-17s5.5-7 11.5-15 12.1-15.9 13.5-17.7c6.2-7.6 9.3-11.3 9.7-11.3.2 0 5.2 5 11.2 11.1m1.7 141.9c11.6.8 25 2.9 38.5 6.1 14.5 3.5 52.3 17.2 60.5 22 1.7 1 6.2 3.5 10 5.7 13.2 7.3 26 16.2 19.8 13.7-3.3-1.3-36.8-11.7-48.3-15-6.3-1.8-17.1-4.9-24-7-19.7-5.8-66.1-17.6-84.7-21.6-6.2-1.3-11-2.6-10.7-2.9.5-.4 12-1.4 22.4-1.8 1.9-.1 9.4.3 16.5.8m425.8-.3c7.6.3 13.7 1 13.7 1.5 0 .4-1 .8-2.2.8-2.6 0-53.4 12.4-69.1 16.8-5.6 1.6-18.1 5.1-27.7 7.7-20.1 5.5-47.6 13.7-63.4 18.9-6 2-11 3.5-11.2 3.3-.4-.4 15.9-11.1 20.3-13.4 4.5-2.3 8.8-4.8 9.3-5.3 2.1-2.3 24.6-11.3 48.5-19.5 10-3.4 37.6-9.2 49.5-10.5 10.5-1 16.6-1.1 32.3-.3"/></svg>